<?xml version="1.0" encoding="UTF-8"?><svg xmlns="http://www.w3.org/2000/svg" xmlns:xlink="http://www.w3.org/1999/xlink" height="226.8" preserveAspectRatio="xMidYMid meet" version="1.1" viewBox="115.9 99.2 193.4 226.8" width="193.4" zoomAndPan="magnify">
 <g id="surface1">
  <g id="change1_1"><path d="m308.54 144.63s-59.61-14.24-95.94-45.415c-36.33 31.175-95.94 45.415-95.94 45.415-0.73 162.93 88.43 180.19 95.94 181.35 7.51-1.16 96.68-18.42 95.94-181.35" fill="#92c9e9"/></g>
  <g id="change2_1"><path d="m212.6 325.98c-7.48-1.16-95.94-18.28-95.94-179.32 0 161.04 88.46 178.16 95.94 179.32 0.19-0.02 0.44-0.07 0.72-0.12-0.29 0.05-0.53 0.1-0.72 0.12m0.73-0.12h0.03-0.03m0.03 0h0.01-0.01m-96.7-181.23c0.38-0.09 16.4-3.95 36.78-11.96-20.38 8.01-36.4 11.87-36.78 11.96" fill="#bfcad6"/></g>
  <g id="change3_1"><path d="m212.6 325.98c-7.48-1.16-95.94-18.28-95.94-179.32v-2.03c0.38-0.09 16.4-3.95 36.78-11.96 4.76 44.7 27.65 127.4 131.54 132.47-25.69 50.17-64.17 59.38-71.61 60.72h-0.01-0.03-0.01c-0.28 0.05-0.53 0.1-0.72 0.12" fill="#82b0cd"/></g>
  <g id="change4_1"><path d="m288.56 158.79s-47.19-11.28-75.96-35.96c-28.76 24.68-75.96 35.96-75.96 35.96-0.58 128.99 70.01 142.66 75.96 143.58 5.95-0.92 76.54-14.59 75.96-143.58" fill="#52852d"/></g>
  <g id="change5_1"><path d="m280.23 164.69s-42.02-10.05-67.63-32.02c-25.62 21.97-67.64 32.02-67.64 32.02-0.51 114.85 62.34 127.02 67.64 127.84 5.29-0.82 68.15-12.99 67.63-127.84" fill="#7ecd50"/></g>
  <g id="change6_1"><path d="m159.67 160.33c-8.77 2.94-14.71 4.36-14.71 4.36-0.51 114.85 62.34 127.02 67.64 127.84 3.05-0.47 25.23-4.72 43.37-30.23-67.04-12.34-89.37-72.86-96.3-101.97" fill="#6db73b"/></g>
  <g id="change7_1"><path d="m192.05 256.9l-29.15-33.69 11.87-10.27 17.99 20.78 57.99-59.32 11.23 10.98-69.93 71.52" fill="#46752c"/></g>
 </g>
</svg>